Normalized EMG Linear Envelopes
nRows=238
nColumns=4

endheader
time	 med_gas_r	  soleus_r	 tib_ant_r	
4.125	  0.006069	  0.007994	  0.001714	
4.15827	  0.006036	  0.011368	  0.001676	
4.19153	  0.006044	  0.014556	  0.001638	
4.2248	  0.006122	  0.017542	  0.001607	
4.25806	  0.006274	  0.019970	  0.001586	
4.29133	  0.006476	  0.021279	  0.001580	
4.3246	  0.006686	  0.021060	  0.001595	
4.35786	  0.006871	  0.019380	  0.001645	
4.39113	  0.007026	  0.016846	  0.001743	
4.4244	  0.007169	  0.014327	  0.001906	
4.45766	  0.007323	  0.012599	  0.002147	
4.49093	  0.007490	  0.012156	  0.002484	
4.52419	  0.007646	  0.013241	  0.002924	
4.55746	  0.007758	  0.015902	  0.003449	
4.59073	  0.007793	  0.019902	  0.003987	
4.62399	  0.007735	  0.024516	  0.004418	
4.65726	  0.007589	  0.028524	  0.004616	
4.69052	  0.007371	  0.030601	  0.004513	
4.72379	  0.007093	  0.029962	  0.004135	
4.75706	  0.006754	  0.026776	  0.003587	
4.79032	  0.006339	  0.022019	  0.002987	
4.82359	  0.005842	  0.016898	  0.002428	
4.85685	  0.005288	  0.012314	  0.001956	
4.89012	  0.004733	  0.008674	  0.001590	
4.92339	  0.004239	  0.006031	  0.001333	
4.95665	  0.003850	  0.004278	  0.001175	
4.98992	  0.003575	  0.003261	  0.001100	
5.02319	  0.003399	  0.002810	  0.001082	
5.05645	  0.003303	  0.002743	  0.001098	
5.08972	  0.003273	  0.002899	  0.001134	
5.12298	  0.003299	  0.003156	  0.001178	
5.15625	  0.003368	  0.003436	  0.001223	
5.18952	  0.003461	  0.003688	  0.001261	
5.22278	  0.003553	  0.003880	  0.001287	
5.25605	  0.003628	  0.003995	  0.001298	
5.28931	  0.003677	  0.004033	  0.001300	
5.32258	  0.003704	  0.004006	  0.001299	
5.35585	  0.003729	  0.003936	  0.001305	
5.38911	  0.003781	  0.003852	  0.001330	
5.42238	  0.003897	  0.003787	  0.001382	
5.45565	  0.004109	  0.003775	  0.001468	
5.48891	  0.004431	  0.003851	  0.001583	
5.52218	  0.004850	  0.004049	  0.001713	
5.55544	  0.005335	  0.004402	  0.001835	
5.58871	  0.005847	  0.004945	  0.001930	
5.62198	  0.006355	  0.005711	  0.001985	
5.65524	  0.006847	  0.006737	  0.002002	
5.68851	  0.007334	  0.008060	  0.001987	
5.72177	  0.007832	  0.009684	  0.001952	
5.75504	  0.008340	  0.011494	  0.001908	
5.78831	  0.008806	  0.013206	  0.001866	
5.82157	  0.009133	  0.014407	  0.001837	
5.85484	  0.009222	  0.014734	  0.001827	
5.8881	  0.009024	  0.014071	  0.001831	
5.92137	  0.008564	  0.012614	  0.001836	
5.95464	  0.007917	  0.010749	  0.001818	
5.9879	  0.007157	  0.008853	  0.001743	
6.02117	  0.006343	  0.007163	  0.001570	
6.05444	  0.005522	  0.005770	  0.001256	
6.0877	  0.004753	  0.004678	  0.000763	
6.12097	  0.004089	  0.003863	  0.000064	
6.15423	  0.003570	  0.003282	 -0.000854	
6.1875	  0.003200	  0.002879	 -0.001975	
6.22077	  0.002959	  0.002595	 -0.003216	
6.25403	  0.002824	  0.002399	 -0.004375	
6.2873	  0.002786	  0.002310	 -0.005084	
6.32056	  0.002862	  0.002412	 -0.004812	
6.35383	  0.003093	  0.002833	 -0.002892	
6.3871	  0.003537	  0.003737	  0.001488	
6.42036	  0.004271	  0.005321	  0.009310	
6.45363	  0.005382	  0.007807	  0.021617	
6.4869	  0.006945	  0.011372	  0.039075	
6.52016	  0.008964	  0.016026	  0.061324	
6.55343	  0.011330	  0.021490	  0.086608	
6.58669	  0.013825	  0.027217	  0.112165	
6.61996	  0.016205	  0.032580	  0.135290	
6.65323	  0.018279	  0.037113	  0.154291	
6.68649	  0.019959	  0.040619	  0.168688	
6.71976	  0.021228	  0.043108	  0.178712	
6.75302	  0.022112	  0.044664	  0.184742	
6.78629	  0.022663	  0.045378	  0.187113	
6.81956	  0.022964	  0.045370	  0.186230	
6.85282	  0.023125	  0.044835	  0.182729	
6.88609	  0.023235	  0.044064	  0.177497	
6.91935	  0.023334	  0.043397	  0.171551	
6.95262	  0.023400	  0.043137	  0.165798	
6.98589	  0.023371	  0.043414	  0.160818	
7.01915	  0.023180	  0.044073	  0.156790	
7.05242	  0.022785	  0.044706	  0.153621	
7.08569	  0.022191	  0.044877	  0.151168	
7.11895	  0.021458	  0.044409	  0.149422	
7.15222	  0.020677	  0.043492	  0.148536	
7.18548	  0.019933	  0.042499	  0.148719	
7.21875	  0.019277	  0.041681	  0.150055	
7.25202	  0.018727	  0.041023	  0.152360	
7.28528	  0.018296	  0.040350	  0.155165	
7.31855	  0.018012	  0.039533	  0.157842	
7.35181	  0.017919	  0.038573	  0.159820	
7.38508	  0.018032	  0.037542	  0.160791	
7.41835	  0.018307	  0.036495	  0.160878	
7.45161	  0.018642	  0.035478	  0.160631	
7.48488	  0.018923	  0.034597	  0.160779	
7.51815	  0.019082	  0.034041	  0.161829	
7.55141	  0.019121	  0.034008	  0.163746	
7.58468	  0.019078	  0.034601	  0.165933	
7.61794	  0.018988	  0.035767	  0.167533	
7.65121	  0.018856	  0.037300	  0.167862	
7.68448	  0.018677	  0.038892	  0.166720	
7.71774	  0.018464	  0.040205	  0.164472	
7.75101	  0.018256	  0.040969	  0.161876	
7.78427	  0.018111	  0.041079	  0.159790	
7.81754	  0.018079	  0.040625	  0.158810	
7.85081	  0.018171	  0.039812	  0.158989	
7.88407	  0.018340	  0.038838	  0.159792	
7.91734	  0.018493	  0.037812	  0.160328	
7.9506	  0.018520	  0.036764	  0.159763	
7.98387	  0.018349	  0.035705	  0.157716	
8.01714	  0.017965	  0.034674	  0.154447	
8.0504	  0.017412	  0.033731	  0.150763	
8.08367	  0.016762	  0.032927	  0.147642	
8.11694	  0.016099	  0.032268	  0.145798	
8.1502	  0.015513	  0.031718	  0.145466	
8.18347	  0.015101	  0.031240	  0.146543	
8.21673	  0.014954	  0.030849	  0.148900	
8.25	  0.015137	  0.030633	  0.152534	
8.28327	  0.015639	  0.030713	  0.157395	
8.31653	  0.016353	  0.031157	  0.163059	
8.3498	  0.017090	  0.031913	  0.168648	
8.38306	  0.017648	  0.032829	  0.173159	
8.41633	  0.017894	  0.033753	  0.175988	
8.4496	  0.017805	  0.034647	  0.177210	
8.48286	  0.017454	  0.035623	  0.177410	
8.51613	  0.016967	  0.036858	  0.177275	
8.5494	  0.016482	  0.038435	  0.177325	
8.58266	  0.016130	  0.040237	  0.177952	
8.61593	  0.016006	  0.041946	  0.179564	
8.64919	  0.016137	  0.043176	  0.182470	
8.68246	  0.016449	  0.043635	  0.186506	
8.71573	  0.016792	  0.043236	  0.190721	
8.74899	  0.017015	  0.042105	  0.193554	
8.78226	  0.017041	  0.040508	  0.193494	
8.81552	  0.016909	  0.038748	  0.189851	
8.84879	  0.016738	  0.037094	  0.183132	
8.88206	  0.016666	  0.035735	  0.174803	
8.91532	  0.016785	  0.034779	  0.166634	
8.94859	  0.017109	  0.034264	  0.160054	
8.98185	  0.017587	  0.034168	  0.155832	
9.01512	  0.018125	  0.034425	  0.154088	
9.04839	  0.018624	  0.034945	  0.154459	
9.08165	  0.019008	  0.035629	  0.156235	
9.11492	  0.019247	  0.036383	  0.158517	
9.14819	  0.019355	  0.037137	  0.160482	
9.18145	  0.019372	  0.037864	  0.161700	
9.21472	  0.019346	  0.038593	  0.162313	
9.24798	  0.019323	  0.039393	  0.162877	
9.28125	  0.019345	  0.040321	  0.163958	
9.31452	  0.019440	  0.041391	  0.165747	
9.34778	  0.019615	  0.042578	  0.167941	
9.38105	  0.019850	  0.043837	  0.169963	
9.41431	  0.020106	  0.045106	  0.171376	
9.44758	  0.020338	  0.046269	  0.172226	
9.48085	  0.020499	  0.047135	  0.173044	
9.51411	  0.020548	  0.047482	  0.174502	
9.54738	  0.020451	  0.047160	  0.176983	
9.58065	  0.020197	  0.046186	  0.180420	
9.61391	  0.019809	  0.044752	  0.184463	
9.64718	  0.019338	  0.043135	  0.188722	
9.68044	  0.018848	  0.041595	  0.192838	
9.71371	  0.018397	  0.040321	  0.196400	
9.74698	  0.018029	  0.039450	  0.198939	
9.78024	  0.017778	  0.039083	  0.200137	
9.81351	  0.017673	  0.039256	  0.200055	
9.84677	  0.017742	  0.039888	  0.199143	
9.88004	  0.018001	  0.040770	  0.197968	
9.91331	  0.018443	  0.041641	  0.196923	
9.94657	  0.019021	  0.042289	  0.196134	
9.97984	  0.019653	  0.042607	  0.195593	
10.0131	  0.020230	  0.042568	  0.195310	
10.0464	  0.020648	  0.042166	  0.195332	
10.0796	  0.020816	  0.041393	  0.195622	
10.1129	  0.020690	  0.040276	  0.195952	
10.1462	  0.020292	  0.038938	  0.195929	
10.1794	  0.019714	  0.037610	  0.195153	
10.2127	  0.019098	  0.036540	  0.193435	
10.246	  0.018572	  0.035879	  0.190992	
10.2792	  0.018202	  0.035614	  0.188542	
10.3125	  0.017961	  0.035623	  0.187211	
10.3458	  0.017753	  0.035795	  0.188166	
10.379	  0.017481	  0.036113	  0.192047	
10.4123	  0.017111	  0.036630	  0.198525	
10.4456	  0.016691	  0.037389	  0.206302	
10.4788	  0.016336	  0.038376	  0.213661	
10.5121	  0.016168	  0.039523	  0.219204	
10.5454	  0.016275	  0.040722	  0.222260	
10.5786	  0.016682	  0.041813	  0.222687	
10.6119	  0.017344	  0.042581	  0.220361	
10.6452	  0.018160	  0.042812	  0.214892	
10.6784	  0.018986	  0.042359	  0.205825	
10.7117	  0.019667	  0.041199	  0.193021	
10.745	  0.020056	  0.039424	  0.176777	
10.7782	  0.020049	  0.037201	  0.157626	
10.8115	  0.019611	  0.034750	  0.136171	
10.8448	  0.018795	  0.032336	  0.113204	
10.878	  0.017739	  0.030277	  0.089945	
10.9113	  0.016614	  0.028917	  0.068044	
10.9446	  0.015568	  0.028517	  0.049222	
10.9778	  0.014676	  0.029088	  0.034766	
11.0111	  0.013931	  0.030248	  0.025179	
11.0444	  0.013274	  0.031265	  0.020090	
11.0776	  0.012641	  0.031333	  0.018382	
11.1109	  0.011994	  0.029964	  0.018475	
11.1442	  0.011334	  0.027247	  0.018776	
11.1774	  0.010680	  0.023809	  0.018181	
11.2107	  0.010056	  0.020542	  0.016362	
11.244	  0.009479	  0.018271	  0.013677	
11.2772	  0.008964	  0.017512	  0.010764	
11.3105	  0.008533	  0.018342	  0.008145	
11.3437	  0.008216	  0.020387	  0.006060	
11.377	  0.008040	  0.022967	  0.004535	
11.4103	  0.008014	  0.025348	  0.003504	
11.4435	  0.008116	  0.026977	  0.002884	
11.4768	  0.008294	  0.027542	  0.002583	
11.5101	  0.008482	  0.026886	  0.002502	
11.5433	  0.008624	  0.024968	  0.002551	
11.5766	  0.008701	  0.021948	  0.002667	
11.6099	  0.008731	  0.018252	  0.002815	
11.6431	  0.008768	  0.014480	  0.002980	
11.6764	  0.008870	  0.011163	  0.003149	
11.7097	  0.009071	  0.008581	  0.003305	
11.7429	  0.009355	  0.006748	  0.003429	
11.7762	  0.009663	  0.005532	  0.003499	
11.8095	  0.009907	  0.004784	  0.003510	
11.8427	  0.010011	  0.004393	  0.003471	
11.876	  0.009925	  0.004285	  0.003408	
11.9093	  0.009643	  0.004399	  0.003353	
11.9425	  0.009192	  0.004674	  0.003331	
11.9758	  0.008624	  0.005045	  0.003349	
12.0091	  0.008002	  0.005453	  0.003399	
